<svg width="16" height="15" viewBox="0 0 16 15" fill="none" xmlns="http://www.w3.org/2000/svg">
<path d="M5.94519 2.53383C6.58726 0.933142 6.9083 0.132799 7.42987 0.0218749C7.56702 -0.00729164 7.70876 -0.00729164 7.84591 0.0218749C8.36749 0.132799 8.68853 0.933142 9.3306 2.53383C9.69573 3.44411 9.8783 3.89925 10.2199 4.20882C10.3157 4.29565 10.4197 4.37298 10.5305 4.43973C10.9253 4.6777 11.4182 4.72185 12.404 4.81013C14.0728 4.95958 14.9072 5.03431 15.162 5.51005C15.2147 5.60858 15.2506 5.71526 15.2681 5.82566C15.3526 6.35868 14.7392 6.91674 13.5124 8.03286L13.1717 8.3428C12.5982 8.86461 12.3114 9.12551 12.1455 9.45112C12.046 9.64644 11.9793 9.85678 11.948 10.0737C11.8959 10.4354 11.9799 10.8139 12.1479 11.5709L12.2079 11.8414C12.5091 13.1989 12.6597 13.8777 12.4717 14.2113C12.3028 14.511 11.9918 14.7029 11.6482 14.7193C11.2656 14.7375 10.7267 14.2983 9.64868 13.4199C8.93847 12.8412 8.58336 12.5519 8.18915 12.4388C7.8289 12.3355 7.44688 12.3355 7.08663 12.4388C6.69242 12.5519 6.33732 12.8412 5.62711 13.4199C4.54913 14.2983 4.01014 14.7375 3.62762 14.7193C3.28402 14.7029 2.97298 14.511 2.80411 14.2113C2.61612 13.8777 2.76672 13.1989 3.06791 11.8414L3.12792 11.5709C3.29587 10.8139 3.37985 10.4354 3.32774 10.0737C3.29648 9.85678 3.22976 9.64644 3.13026 9.45112C2.96439 9.12551 2.67762 8.86461 2.10407 8.3428L1.7634 8.03286C0.536609 6.91674 -0.0767858 6.35868 0.00768765 5.82566C0.0251829 5.71526 0.061062 5.60858 0.113833 5.51005C0.368633 5.03431 1.20301 4.95958 2.87177 4.81013C3.85756 4.72185 4.35045 4.6777 4.74529 4.43973C4.85604 4.37298 4.96005 4.29565 5.05587 4.20882C5.39748 3.89925 5.58005 3.44411 5.94519 2.53383Z" fill="#FFB800"/>
</svg>
