<svg width="24" height="26" viewBox="0 0 24 26" fill="none" xmlns="http://www.w3.org/2000/svg">
<path d="M18.182 18.9577C17.8173 17.9371 17.0138 17.0352 15.8961 16.3919C14.7784 15.7487 13.4089 15.4 12 15.4C10.5912 15.4 9.22169 15.7487 8.10396 16.3919C6.98624 17.0352 6.18275 17.9371 5.81811 18.9577" stroke="#1E2129" stroke-width="2" stroke-linecap="round"/>
<ellipse cx="12" cy="8.99993" rx="3.2" ry="3.2" stroke="#1E2129" stroke-width="2" stroke-linecap="round"/>
<path d="M10.5 1.86603C11.4282 1.33013 12.5718 1.33013 13.5 1.86603L20.8923 6.13397C21.8205 6.66987 22.3923 7.66025 22.3923 8.73205V17.2679C22.3923 18.3397 21.8205 19.3301 20.8923 19.866L13.5 24.134C12.5718 24.6699 11.4282 24.6699 10.5 24.134L3.1077 19.866C2.17949 19.3301 1.6077 18.3397 1.6077 17.2679V8.73205C1.6077 7.66025 2.17949 6.66987 3.1077 6.13397L10.5 1.86603Z" stroke="#1E2129"/>
</svg>
